<svg width="24" height="24" viewBox="0 0 24 24" fill="none" xmlns="http://www.w3.org/2000/svg">
<path fill-rule="evenodd" clip-rule="evenodd" d="M16.7636 3.2636C17.1151 2.91213 17.6849 2.91213 18.0364 3.2636L21.0364 6.2636C21.3879 6.61508 21.3879 7.18492 21.0364 7.5364L18.5364 10.0364C18.1849 10.3879 17.6151 10.3879 17.2636 10.0364L14.2636 7.0364C13.9121 6.68492 13.9121 6.11508 14.2636 5.7636L16.7636 3.2636ZM16.1728 6.4L17.9 8.12721L19.1272 6.9L17.4 5.17279L16.1728 6.4ZM12.2636 7.7636C12.6151 7.41213 13.1849 7.41213 13.5364 7.7636L16.5364 10.7636C16.8879 11.1151 16.8879 11.6849 16.5364 12.0364L7.5364 21.0364C7.36761 21.2052 7.13869 21.3 6.9 21.3H3.9C3.40294 21.3 3 20.8971 3 20.4V17.4C3 17.1613 3.09482 16.9324 3.2636 16.7636L12.2636 7.7636ZM4.8 17.7728V19.5H6.52721L14.6272 11.4L12.9 9.67279L4.8 17.7728ZM9.41213 20.8879L10.3121 19.9879C10.3684 19.9316 10.4447 19.9 10.5243 19.9H17.3394C17.5791 19.9 17.722 20.167 17.5891 20.3664L16.9891 21.2664C16.9334 21.3499 16.8398 21.4 16.7394 21.4H9.62426C9.35699 21.4 9.22314 21.0769 9.41213 20.8879Z" fill="#3B3E3C"/>
</svg>