<svg width="24" height="24" viewBox="0 0 24 24" fill="none" xmlns="http://www.w3.org/2000/svg">
<path fill-rule="evenodd" clip-rule="evenodd" d="M8.63649 12.3636C8.28502 12.0121 7.71517 12.0121 7.3637 12.3636C7.01223 12.7151 7.01223 13.2849 7.3637 13.6364L11.3637 17.6364C11.5325 17.8052 11.7614 17.9 12.0001 17.9C12.2388 17.9 12.4677 17.8052 12.6365 17.6364L16.6365 13.6364C16.988 13.2849 16.988 12.7151 16.6365 12.3636C16.285 12.0121 15.7152 12.0121 15.3637 12.3636L12.9001 14.8272V3.00001C12.9001 2.50295 12.4972 2.10001 12.0001 2.10001C11.503 2.10001 11.1001 2.50295 11.1001 3.00001V14.8272L8.63649 12.3636ZM5.9001 10C5.9001 9.39249 6.39258 8.90001 7.0001 8.90001H8.5001C8.99715 8.90001 9.4001 8.49706 9.4001 8.00001C9.4001 7.50295 8.99715 7.10001 8.5001 7.10001H7.0001C5.39847 7.10001 4.1001 8.39838 4.1001 10V19C4.1001 20.6016 5.39847 21.9 7.0001 21.9H17.0001C18.6017 21.9 19.9001 20.6016 19.9001 19V10C19.9001 8.39838 18.6017 7.10001 17.0001 7.10001H15.5001C15.003 7.10001 14.6001 7.50295 14.6001 8.00001C14.6001 8.49706 15.003 8.90001 15.5001 8.90001H17.0001C17.6076 8.90001 18.1001 9.39249 18.1001 10V19C18.1001 19.6075 17.6076 20.1 17.0001 20.1H7.0001C6.39258 20.1 5.9001 19.6075 5.9001 19V10Z" fill="#3B3E3C"/>
</svg>